<?xml version="1.0" encoding="UTF-8"?>
<svg width="40px" height="40px" viewBox="0 0 40 40" version="1.1" xmlns="http://www.w3.org/2000/svg" xmlns:xlink="http://www.w3.org/1999/xlink">
    <!-- Generator: Sketch 55.2 (78181) - https://sketchapp.com -->
    <title>mail black</title>
    <desc>Created with Sketch.</desc>
    <g stroke="none" stroke-width="1" fill="none" fill-rule="evenodd">
        <path d="M20,40 C31.045695,40 40,31.045695 40,20 C40,8.954305 31.045695,0 20,0 C8.954305,0 0,8.954305 0,20 C0,31.045695 8.954305,40 20,40 Z M20,37 C10.6111593,37 3,29.3888407 3,20 C3,10.6111593 10.6111593,3 20,3 C29.3888407,3 37,10.6111593 37,20 C37,29.3888407 29.3888407,37 20,37 Z" fill="#212123" fill-rule="nonzero"></path>
        <g transform="translate(10.000000, 12.000000)" fill="#212123" fill-rule="nonzero">
            <path d="M18.75,0 L1.25,0 C0.918479,0 0.600537,0.1317 0.366117,0.36612 C0.131696,0.60054 0,0.91848 0,1.25 L0,14.75 C0,15.0815 0.131696,15.3995 0.366117,15.6339 C0.600537,15.8683 0.918479,16 1.25,16 L18.75,16 C19.0815,16 19.3995,15.8683 19.6339,15.6339 C19.8683,15.3995 20,15.0815 20,14.75 L20,1.25 C20,0.91848 19.8683,0.60054 19.6339,0.36612 C19.3995,0.1317 19.0815,0 18.75,0 Z M17.46,2.5 L10,8.405 L2.54,2.5 L17.46,2.5 Z M2.5,13.5 L2.5,5.66 L9.225,11 C9.44531,11.1752 9.7185,11.2706 10,11.2706 C10.2815,11.2706 10.5547,11.1752 10.775,11 L17.5,5.66 L17.5,13.5 L2.5,13.5 Z"></path>
        </g>
    </g>
</svg>