<?xml version="1.0" encoding="UTF-8"?>
<svg width="40px" height="40px" viewBox="0 0 40 40" version="1.1" xmlns="http://www.w3.org/2000/svg" xmlns:xlink="http://www.w3.org/1999/xlink">
    <!-- Generator: Sketch 55.2 (78181) - https://sketchapp.com -->
    <title>pencil purple</title>
    <desc>Created with Sketch.</desc>
    <g stroke="none" stroke-width="1" fill="none" fill-rule="evenodd">
        <path d="M20,40 C31.045695,40 40,31.045695 40,20 C40,8.954305 31.045695,0 20,0 C8.954305,0 0,8.954305 0,20 C0,31.045695 8.954305,40 20,40 Z M20,37 C10.6111593,37 3,29.3888407 3,20 C3,10.6111593 10.6111593,3 20,3 C29.3888407,3 37,10.6111593 37,20 C37,29.3888407 29.3888407,37 20,37 Z" fill="#4F66EE" fill-rule="nonzero"></path>
        <g transform="translate(10.000000, 10.000000)" fill="#4F66EE" fill-rule="nonzero">
            <path d="M19.6358,3.65025 L16.3508,0.365254 C16.1165,0.131679 15.7991,0.000518799 15.4683,0.000518799 C15.1374,0.000518799 14.8201,0.131679 14.5858,0.365254 L1.36577,13.5853 C1.2003,13.7493 1.08571,13.9577 1.03577,14.1853 L0.0357737,18.4653 C-0.0081396,18.6486 -0.00984526,18.8395 0.0307854,19.0236 C0.071416,19.2077 0.153322,19.3801 0.270324,19.528 C0.387327,19.6758 0.53637,19.7951 0.706211,19.8769 C0.876052,19.9587 1.06226,20.0009 1.25077,20.0003294 C1.34689,20.001 1.44269,19.9892 1.53577,19.9653 L5.81577,18.9653 C6.04338,18.9153 6.25172,18.8007 6.41577,18.6353 L19.6358,5.41525 C19.8694,5.18095 20.0005,4.8636 20.0005,4.53275 C20.0005,4.20191 19.8694,3.88456 19.6358,3.65025 Z M15.4658,3.00025 L16.9658,4.50025 L15.7508,5.76525 L14.2508,4.26525 L15.4658,3.00025 Z M4.90077,16.6153 L2.90077,17.0753 L3.36077,15.1003 L12.4658,6.00025 L13.9658,7.50025 L4.90077,16.6153 Z"></path>
        </g>
    </g>
</svg>